<?xml version="1.0" encoding="UTF-8" standalone="no"?>
<!DOCTYPE svg PUBLIC "-//W3C//DTD SVG 1.1//EN" "http://www.w3.org/Graphics/SVG/1.1/DTD/svg11.dtd">
<svg width="100%" height="100%" viewBox="0 0 679 370" version="1.1" xmlns="http://www.w3.org/2000/svg" xmlns:xlink="http://www.w3.org/1999/xlink" xml:space="preserve" xmlns:serif="http://www.serif.com/" style="fill-rule:evenodd;clip-rule:evenodd;stroke-linejoin:round;stroke-miterlimit:2;">
    <g transform="matrix(1,0,0,1,-3731.22,-1494.57)">
        <g transform="matrix(1,0,0,1,1233.33,852.952)">
            <g transform="matrix(1,0,0,1,-129.533,-63.6006)">
                <g transform="matrix(1,0,0,1,-1233.33,-852.952)">
                    <path d="M3896.38,1908.44C3891.9,1912.93 3884.61,1912.93 3880.12,1908.44C3875.63,1903.96 3875.63,1896.67 3880.12,1892.18L4096.34,1675.96C4100.83,1671.47 4108.11,1671.47 4112.61,1675.96L4259.88,1823.23L4503.97,1579.14C4507.26,1575.85 4512.2,1574.86 4516.5,1576.64C4520.8,1578.42 4523.6,1582.62 4523.6,1587.27L4523.6,1709.64C4523.6,1715.99 4518.45,1721.14 4512.1,1721.14C4505.75,1721.14 4500.6,1715.99 4500.6,1709.64L4500.6,1615.03L4268.01,1847.62C4263.52,1852.12 4256.24,1852.12 4251.74,1847.62L4104.47,1700.35L3896.38,1908.44Z" style="fill:rgb(85,77,65);stroke:rgb(85,77,65);stroke-width:32px;"/>
                </g>
                <g transform="matrix(1,0,0,1,-1236.33,-850.952)">
                    <path d="M4380.83,1595.17C4374.48,1595.17 4369.33,1590.02 4369.33,1583.67C4369.33,1577.32 4374.48,1572.17 4380.83,1572.17L4514.3,1572.17C4520.65,1572.17 4525.8,1577.32 4525.8,1583.67C4525.8,1590.02 4520.65,1595.17 4514.3,1595.17L4380.83,1595.17Z" style="fill:rgb(85,77,65);stroke:rgb(85,77,65);stroke-width:32px;"/>
                </g>
            </g>
        </g>
    </g>
</svg>
