<?xml version="1.0" encoding="UTF-8" standalone="no"?>
<!DOCTYPE svg PUBLIC "-//W3C//DTD SVG 1.1//EN" "http://www.w3.org/Graphics/SVG/1.1/DTD/svg11.dtd">
<svg width="100%" height="100%" viewBox="0 0 926 999" version="1.1" xmlns="http://www.w3.org/2000/svg" xmlns:xlink="http://www.w3.org/1999/xlink" xml:space="preserve" xmlns:serif="http://www.serif.com/" style="fill-rule:evenodd;clip-rule:evenodd;stroke-linejoin:round;stroke-miterlimit:2;">
    <g transform="matrix(1,0,0,1,-2377.61,-1116.25)">
        <g transform="matrix(1,0,0,1,1234,853)">
            <g transform="matrix(1,0,0,1,1002.29,0)">
                <path d="M530.719,340.442C534.606,303.248 566.056,274.249 604.287,274.249C624.716,274.249 643.206,282.534 656.592,295.91L656.595,295.913C668.277,307.595 676.066,323.169 677.862,340.513C721.535,352.137 881.479,407.207 901.575,598.803C902.659,609.131 903.209,619.623 903.209,630.243L903.209,650.796C903.209,844.134 997.709,916.477 1035.07,937.194L1035.07,937.197C1048.13,944.445 1056.26,958.148 1056.26,973.082L1056.26,1011.57C1056.26,1034.19 1037.91,1052.55 1015.28,1052.55L193.294,1052.55C170.666,1052.55 152.315,1034.19 152.315,1011.57L152.315,973.082C152.315,958.148 160.443,944.444 173.504,937.196L173.507,937.194C210.865,916.477 305.365,844.134 305.365,650.796L305.365,630.243C305.365,490.54 401.207,373.227 530.719,340.442ZM1033.26,973.082C1033.26,966.51 1029.65,960.495 1023.91,957.308C983.802,935.065 880.209,858.38 880.209,650.796L880.209,630.243C880.209,620.433 879.701,610.743 878.701,601.203C858.531,408.909 685.741,365.611 664.271,360.855C659.006,359.688 655.259,355.02 655.259,349.627L655.259,348.221C655.259,334.151 649.557,321.404 640.333,312.178C631.107,302.96 618.366,297.249 604.287,297.249C576.132,297.249 553.315,320.073 553.315,348.221L553.315,349.627C553.315,355.019 549.568,359.687 544.304,360.854C420.756,388.241 328.365,498.453 328.365,630.243L328.365,650.796C328.365,858.38 224.772,935.065 184.664,957.306C178.917,960.496 175.315,966.51 175.315,973.082L175.315,1011.57C175.315,1021.49 183.366,1029.55 193.294,1029.55L1015.28,1029.55C1025.21,1029.55 1033.26,1021.49 1033.26,1011.57L1033.26,973.082Z" style="fill:rgb(83,77,65);"/>
            </g>
        </g>
        <g transform="matrix(1,0,0,1,1234,853)">
            <g transform="matrix(1,0,0,1,-1234,-853)">
                <path d="M3258.55,1826.08L3258.55,1864.57C3258.55,1868.42 3255.43,1871.55 3251.57,1871.55L2429.59,1871.55C2425.73,1871.55 2422.61,1868.42 2422.61,1864.57L2422.61,1826.08C2422.61,1823.51 2424.05,1821.17 2426.3,1819.92C2467.72,1796.95 2575.66,1718.2 2575.66,1503.8L2575.66,1483.24C2575.66,1356.71 2664.36,1250.89 2782.98,1224.59C2793.28,1222.31 2800.61,1213.18 2800.61,1202.63L2800.61,1201.22C2800.61,1179.15 2818.5,1161.25 2840.58,1161.25C2851.62,1161.25 2861.61,1165.73 2868.85,1172.96C2876.08,1180.19 2880.55,1190.19 2880.55,1201.22L2880.55,1202.63C2880.55,1213.18 2887.88,1222.31 2898.18,1224.59C2918.8,1229.16 3084.69,1270.73 3104.05,1455.35C3105.01,1464.51 3105.5,1473.82 3105.5,1483.24L3105.5,1503.8C3105.5,1718.2 3213.44,1796.95 3254.87,1819.93C3257.11,1821.17 3258.55,1823.51 3258.55,1826.08Z" style="fill:rgb(85,77,65);"/>
            </g>
        </g>
        <g transform="matrix(1,0,0,1,1234,853)">
            <g transform="matrix(1,0,0,1,1002.29,0)">
                <path d="M168.166,927.578C168.167,927.577 168.172,927.574 168.172,927.574L173.501,948.172C173.502,948.181 173.503,948.187 173.503,948.191C173.237,947.975 159.159,936.492 165.667,929.475C166.385,928.746 167.213,928.109 168.141,927.592C167.106,928.169 166.292,928.801 165.667,929.475C163.005,932.177 161.867,936.137 162.855,939.953C164.111,944.806 168.49,948.196 173.504,948.196C175.371,948.196 177.208,947.72 178.841,946.814C169.278,952.121 163.315,962.147 163.315,973.082L163.315,1011.57C163.315,1028.12 176.74,1041.55 193.294,1041.55L1015.28,1041.55C1031.84,1041.55 1045.26,1028.12 1045.26,1011.57L1045.26,973.082C1045.26,962.147 1039.29,952.121 1029.73,946.813C1032.76,948.491 1034.96,948.209 1035.06,948.194C1035.07,948.194 1035.07,948.194 1035.07,948.194C1035.07,948.194 1035.06,948.194 1035.06,948.194C1033.2,948.193 1031.36,947.718 1029.73,946.813L1029.73,946.812C991.054,925.364 892.209,850.942 892.209,650.796L892.209,630.243C892.209,620.01 891.679,609.902 890.635,599.951C871.272,415.351 717.111,362.342 675.033,351.143C670.62,349.969 667.391,346.189 666.921,341.646C665.392,326.885 658.759,313.633 648.817,303.691C652.582,307.454 656.466,306.929 656.589,306.911C656.591,306.911 656.592,306.91 656.592,306.91C656.591,306.91 656.589,306.91 656.588,306.91C653.673,306.909 650.878,305.751 648.817,303.691L648.815,303.69C637.419,292.302 621.678,285.249 604.287,285.249C571.744,285.249 544.968,309.926 541.66,341.586C541.18,346.173 537.89,349.974 533.419,351.106C408.673,382.684 316.365,495.683 316.365,630.243L316.365,650.796C316.365,850.944 217.518,925.365 178.843,946.813L178.841,946.814L173.507,948.194L173.501,948.172C173.419,947.36 171.217,925.893 168.172,927.574C204.214,907.587 294.365,837.324 294.365,650.796L294.365,630.243C294.365,487.959 390.256,368.079 520.929,331.664C528.637,292.666 563.02,263.249 604.287,263.249C627.752,263.249 648.991,272.764 664.367,288.13C664.368,288.13 664.372,288.134 664.373,288.135C676.079,299.841 684.38,314.95 687.68,331.842C740.904,347.489 892.643,408.202 912.515,597.656C913.638,608.361 914.209,619.235 914.209,630.243L914.209,650.796C914.209,837.324 1004.36,907.587 1040.4,927.574C1040.4,927.575 1040.41,927.578 1040.41,927.58C1056.96,936.769 1067.26,954.149 1067.26,973.082L1067.26,1011.57C1067.26,1040.26 1043.99,1063.55 1015.28,1063.55L193.294,1063.55C164.592,1063.55 141.315,1040.26 141.315,1011.57L141.315,973.082C141.315,954.148 151.607,936.767 168.166,927.578ZM173.504,948.196C173.504,948.196 173.503,948.194 173.503,948.191C173.506,948.193 173.507,948.194 173.507,948.194L173.504,948.196ZM1044.26,973.082L1044.26,1011.57C1044.26,1027.56 1031.28,1040.55 1015.28,1040.55L193.294,1040.55C177.292,1040.55 164.315,1027.56 164.315,1011.57L164.315,973.082C164.315,962.511 170.082,952.819 179.327,947.688L179.33,947.686C218.12,926.175 317.365,851.566 317.365,650.796L317.365,630.243C317.365,493.197 413.448,378.594 541.923,350.115C542.152,350.064 542.315,349.861 542.315,349.627L542.315,348.221C542.315,313.998 570.056,286.249 604.287,286.249C621.402,286.249 636.892,293.19 648.108,304.397L648.111,304.4C659.327,315.617 666.259,331.115 666.259,348.221L666.259,349.627C666.259,349.861 666.422,350.064 666.651,350.115C688.977,355.062 868.666,400.086 889.641,600.055C890.681,609.972 891.209,620.046 891.209,630.243L891.209,650.796C891.209,851.566 990.454,926.175 1029.25,947.688L1029.25,947.691C1038.49,952.818 1044.26,962.51 1044.26,973.082ZM1022.26,973.082C1022.26,970.51 1020.82,968.173 1018.58,966.928C977.15,943.954 869.209,865.197 869.209,650.796L869.209,630.243C869.209,620.821 868.722,611.513 867.761,602.35C848.396,417.732 682.504,376.161 661.892,371.594C651.591,369.312 644.259,360.178 644.259,349.627L644.259,348.221C644.259,337.188 639.789,327.192 632.556,319.958C625.32,312.729 615.328,308.249 604.287,308.249C582.208,308.249 564.315,326.147 564.315,348.221L564.315,349.627C564.315,360.177 556.984,369.311 546.684,371.594C428.065,397.888 339.365,503.71 339.365,630.243L339.365,650.796C339.365,865.197 231.424,943.954 190.002,966.924C187.753,968.173 186.315,970.51 186.315,973.082L186.315,1011.57C186.315,1015.42 189.44,1018.55 193.294,1018.55L1015.28,1018.55C1019.13,1018.55 1022.26,1015.42 1022.26,1011.57L1022.26,973.082Z" style="fill:rgb(85,77,65);"/>
            </g>
        </g>
        <g transform="matrix(1,0,0,1,1234,853)">
            <g transform="matrix(1,0,0,1,1002.29,28)">
                <path d="M753.363,1073.89C753.363,1156.22 686.619,1222.96 604.287,1222.96C521.955,1222.96 455.212,1156.22 455.212,1073.89C455.212,1067.54 460.361,1062.39 466.712,1062.39L741.863,1062.39C748.214,1062.39 753.363,1067.54 753.363,1073.89ZM729.846,1085.39L478.729,1085.39C484.538,1149.63 538.534,1199.96 604.287,1199.96C670.04,1199.96 724.037,1149.63 729.846,1085.39Z" style="fill:rgb(83,77,65);"/>
            </g>
        </g>
        <g transform="matrix(1,0,0,1,1234,853)">
            <g transform="matrix(1,0,0,1,-1234,-853)">
                <path d="M2953.46,1977.39C2943,2030.17 2896.43,2069.96 2840.58,2069.96C2784.72,2069.96 2738.16,2030.17 2727.7,1977.39L2953.46,1977.39Z" style="fill:rgb(85,77,65);"/>
            </g>
        </g>
        <g transform="matrix(1,0,0,1,1234,853)">
            <g transform="matrix(1,0,0,1,1002.29,28)">
                <path d="M764.363,1073.89C764.363,1162.3 692.695,1233.96 604.287,1233.96C515.879,1233.96 444.212,1162.3 444.212,1073.89C444.212,1061.46 454.286,1051.39 466.712,1051.39L741.863,1051.39C754.289,1051.39 764.363,1061.46 764.363,1073.89ZM742.363,1073.89C742.363,1073.61 742.139,1073.39 741.863,1073.39L466.712,1073.39C466.436,1073.39 466.212,1073.61 466.212,1073.89C466.212,1150.15 528.03,1211.96 604.287,1211.96C680.544,1211.96 742.363,1150.15 742.363,1073.89ZM740.801,1086.38C734.485,1156.23 675.78,1210.96 604.287,1210.96C532.794,1210.96 474.09,1156.23 467.774,1086.38C467.496,1083.3 468.525,1080.25 470.609,1077.97C472.693,1075.69 475.64,1074.39 478.729,1074.39L729.846,1074.39C732.935,1074.39 735.882,1075.69 737.966,1077.97C740.05,1080.25 741.079,1083.3 740.801,1086.38ZM717.166,1096.39L491.409,1096.39C501.867,1149.17 548.432,1188.96 604.287,1188.96C660.142,1188.96 706.708,1149.17 717.166,1096.39Z" style="fill:rgb(85,77,65);"/>
            </g>
        </g>
    </g>
</svg>
