<?xml version="1.0" encoding="UTF-8" standalone="no"?>
<!DOCTYPE svg PUBLIC "-//W3C//DTD SVG 1.1//EN" "http://www.w3.org/Graphics/SVG/1.1/DTD/svg11.dtd">
<svg width="100%" height="100%" viewBox="0 0 1674 1674" version="1.1" xmlns="http://www.w3.org/2000/svg" xmlns:xlink="http://www.w3.org/1999/xlink" xml:space="preserve" xmlns:serif="http://www.serif.com/" style="fill-rule:evenodd;clip-rule:evenodd;stroke-linejoin:round;stroke-miterlimit:2;">
    <g transform="matrix(1,0,0,1,-2839.48,-2462.07)">
        <g transform="matrix(1,0,0,1,1233.33,852.952)">
            <g transform="matrix(1,0,0,1,1342.88,1415.86)">
                <path d="M1904.65,921.104C1911.05,952.623 1913.24,988.048 1913.24,1030C1913.24,1071.64 1911.08,1106.85 1904.8,1138.2L1904.8,1138.2C1899.78,1163.18 1881.7,1183.52 1857.42,1191.24L1857.42,1191.24C1828.18,1200.53 1798.94,1209.83 1769.71,1219.13C1754.76,1272.18 1733.67,1322.66 1707.26,1369.77C1721.37,1397.03 1735.48,1424.3 1749.59,1451.56L1749.6,1451.57C1761.18,1473.97 1759.91,1500.95 1745.98,1521.97C1728.21,1548.79 1704.71,1575.38 1675.04,1605.04C1645.6,1634.49 1619.17,1657.86 1592.56,1675.58C1571.36,1689.7 1544.19,1691.3 1521.57,1679.6L1521.56,1679.59C1494.3,1665.48 1467.03,1651.37 1439.77,1637.26C1392.67,1663.67 1342.18,1684.76 1289.13,1699.71C1279.83,1728.95 1270.53,1758.18 1261.24,1787.42L1261.24,1787.42C1253.6,1811.46 1233.61,1829.63 1208.9,1834.65L1208.9,1834.65C1177.37,1841.05 1141.95,1843.24 1100,1843.24C1058.36,1843.24 1023.15,1841.08 991.805,1834.79C966.821,1829.78 946.483,1811.7 938.761,1787.41C929.465,1758.18 920.169,1728.94 910.873,1699.71C857.818,1684.76 807.334,1663.67 760.235,1637.26C732.968,1651.37 705.701,1665.48 678.434,1679.59L678.43,1679.59C656.034,1691.18 629.05,1689.9 608.03,1675.98L608.024,1675.98C581.216,1658.2 554.62,1634.7 524.955,1605.04C495.509,1575.6 472.139,1549.17 454.421,1522.57C440.297,1501.36 438.699,1474.19 450.41,1451.56L492.74,1369.77C466.332,1322.66 445.244,1272.18 430.291,1219.13C401.053,1209.83 371.816,1200.53 342.577,1191.24L342.575,1191.24C318.542,1183.6 300.363,1163.61 295.35,1138.9C288.955,1107.37 286.764,1071.95 286.764,1030C286.764,988.356 288.923,953.146 295.209,921.802C300.219,896.819 318.297,876.481 342.58,868.761L430.291,840.872C445.244,787.816 466.332,737.333 492.74,690.235L450.408,608.431C438.817,586.034 440.095,559.048 454.026,538.026C471.792,511.217 495.29,484.619 524.955,454.955C554.402,425.509 580.825,402.138 607.434,384.419C628.642,370.296 655.807,368.699 678.436,380.41L760.234,422.739C807.334,396.331 857.817,375.243 910.872,360.29L938.763,272.574C946.404,248.541 966.389,230.364 991.106,225.35C1022.63,218.954 1058.05,216.764 1100,216.764C1141.64,216.764 1176.86,218.922 1208.2,225.209C1233.18,230.219 1253.52,248.297 1261.24,272.581C1270.53,301.818 1279.83,331.054 1289.13,360.289C1342.18,375.243 1392.67,396.331 1439.77,422.74L1521.57,380.407C1543.97,368.817 1570.95,370.095 1591.97,384.025C1618.79,401.791 1645.38,425.29 1675.04,454.955C1704.49,484.402 1727.86,510.825 1745.58,537.432L1745.58,537.435C1759.7,558.643 1761.3,585.804 1749.6,608.432L1749.59,608.437C1735.48,635.703 1721.37,662.969 1707.26,690.235C1733.67,737.333 1754.76,787.817 1769.71,840.872C1798.95,850.168 1828.18,859.465 1857.42,868.762C1881.46,876.404 1899.63,896.388 1904.65,921.102L1904.65,921.104ZM1882.11,925.679C1878.75,909.135 1866.54,895.796 1850.45,890.68C1819.24,880.754 1788.03,870.828 1756.81,860.903C1753.09,859.721 1750.22,856.73 1749.19,852.963C1734.11,797.532 1712.12,744.951 1684.2,696.198C1682.26,692.808 1682.17,688.665 1683.97,685.196C1699.04,656.086 1714.1,626.977 1729.16,597.867C1737.02,582.668 1735.92,564.426 1726.44,550.18C1709.46,524.686 1686.99,499.432 1658.78,471.219C1630.36,442.802 1604.95,420.217 1579.27,403.199C1565.19,393.873 1547.13,393.076 1532.13,400.835L1444.81,446.03C1441.34,447.825 1437.19,447.737 1433.81,445.796C1385.05,417.878 1332.47,395.886 1277.04,380.807C1273.27,379.782 1270.29,376.916 1269.1,373.196C1259.17,341.98 1249.24,310.764 1239.32,279.547C1234.14,263.239 1220.46,251.125 1203.68,247.759C1173.64,241.736 1139.9,239.764 1100,239.764C1059.81,239.764 1025.87,241.764 995.679,247.89C979.135,251.247 965.796,263.457 960.681,279.544L930.903,373.195C929.72,376.915 926.73,379.782 922.963,380.807C867.533,395.886 814.951,417.878 766.198,445.796C762.809,447.736 758.666,447.824 755.198,446.03L667.866,400.836C652.667,392.971 634.426,394.078 620.182,403.563C594.687,420.54 569.432,443.005 541.219,471.219C512.802,499.635 490.216,525.05 473.198,550.732C463.873,564.802 463.077,582.869 470.835,597.861L516.03,685.198C517.825,688.666 517.737,692.809 515.797,696.198C487.879,744.95 465.887,797.532 450.808,852.963C449.783,856.73 446.916,859.72 443.196,860.903L349.55,890.679C333.241,895.865 321.125,909.546 317.76,926.324C311.737,956.356 309.764,990.1 309.764,1030C309.764,1070.19 311.765,1104.13 317.89,1134.32C321.247,1150.87 333.458,1164.2 349.545,1169.32C380.764,1179.24 411.98,1189.17 443.197,1199.1C446.917,1200.28 449.783,1203.27 450.808,1207.04C465.887,1262.47 487.879,1315.04 515.797,1363.81C517.737,1367.19 517.825,1371.34 516.03,1374.81L470.836,1462.14C462.972,1477.33 464.078,1495.58 473.563,1509.81L473.564,1509.82C490.54,1535.31 513.005,1560.57 541.219,1588.78C569.635,1617.19 595.05,1639.78 620.731,1656.8C634.803,1666.12 652.87,1666.92 667.863,1659.17C696.974,1644.1 726.085,1629.04 755.196,1613.97C758.665,1612.17 762.808,1612.26 766.198,1614.2C814.952,1642.12 867.533,1664.11 922.963,1679.19C926.73,1680.22 929.72,1683.08 930.903,1686.81C940.829,1718.02 950.754,1749.24 960.679,1780.44C965.865,1796.76 979.544,1808.88 996.321,1812.23L996.327,1812.24C1026.36,1818.26 1060.1,1820.24 1100,1820.24C1140.19,1820.24 1174.12,1818.24 1204.32,1812.11C1220.87,1808.75 1234.2,1796.54 1239.32,1780.45C1249.24,1749.24 1259.17,1718.02 1269.1,1686.8C1270.28,1683.08 1273.27,1680.22 1277.04,1679.19C1332.47,1664.11 1385.05,1642.12 1433.81,1614.2C1437.19,1612.26 1441.34,1612.17 1444.81,1613.97C1473.92,1629.04 1503.03,1644.1 1532.13,1659.17C1547.33,1667.02 1565.58,1665.92 1579.82,1656.44C1605.31,1639.46 1630.57,1616.99 1658.78,1588.78C1687.19,1560.36 1709.79,1534.95 1726.8,1509.27L1726.8,1509.27C1736.13,1495.19 1736.92,1477.13 1729.16,1462.13C1714.1,1433.02 1699.04,1403.92 1683.97,1374.81C1682.17,1371.34 1682.26,1367.19 1684.2,1363.81C1712.12,1315.04 1734.11,1262.47 1749.19,1207.04C1750.22,1203.27 1753.08,1200.29 1756.8,1199.1C1788.01,1189.17 1819.24,1179.24 1850.46,1169.32C1866.76,1164.14 1878.88,1150.46 1882.25,1133.68C1888.26,1103.64 1890.24,1069.9 1890.24,1030C1890.24,989.813 1888.24,955.872 1882.11,925.679ZM1100,1546.24C814.89,1546.24 583.76,1315.11 583.76,1030C583.76,744.89 814.89,513.759 1100,513.759C1385.11,513.759 1616.24,744.89 1616.24,1030C1616.24,1315.11 1385.11,1546.24 1100,1546.24ZM1100,1523.24C1372.41,1523.24 1593.24,1302.41 1593.24,1030C1593.24,757.592 1372.41,536.759 1100,536.759C827.592,536.759 606.76,757.592 606.76,1030C606.76,1302.41 827.592,1523.24 1100,1523.24Z" style="fill:rgb(85,77,65);"/>
            </g>
        </g>
        <g transform="matrix(1,0,0,1,1233.33,852.952)">
            <g transform="matrix(1,0,0,1,-1233.33,-852.952)">
                <path d="M4283.42,3765.1C4267.17,3789.63 4245.51,3813.83 4218.37,3840.97C4191.42,3867.92 4167.36,3889.47 4143,3905.69C4135.88,3910.43 4126.75,3911.03 4119.14,3907.1C4090.04,3892.03 4060.93,3876.97 4031.82,3861.91L4023.59,3858.88L4014.99,3857.99L4006.44,3859.24L3998.34,3862.62C3951.3,3889.55 3900.56,3910.78 3847.08,3925.33L3838.98,3928.67L3832.05,3933.83L3826.6,3940.53L3822.92,3948.49C3812.99,3979.71 3803.06,4010.92 3793.14,4042.14C3790.6,4050.11 3784.06,4056.22 3775.86,4057.89C3747.02,4063.74 3714.6,4065.55 3676.21,4065.55C3638.1,4065.55 3605.85,4063.76 3577.16,4058L3577.15,4058C3568.76,4056.32 3561.88,4050.29 3559.29,4042.13L3559.29,4042.13C3549.36,4010.92 3539.44,3979.7 3529.51,3948.49L3525.83,3940.53L3520.38,3933.83L3513.45,3928.67L3505.35,3925.33C3451.86,3910.77 3401.13,3889.55 3354.09,3862.62L3345.99,3859.24L3337.44,3857.99L3328.84,3858.88L3320.61,3861.91C3291.5,3876.97 3262.39,3892.03 3233.28,3907.1C3225.85,3910.94 3216.89,3910.64 3209.92,3906.02C3185.39,3889.76 3161.19,3868.11 3134.05,3840.97C3107.09,3814.01 3085.56,3789.95 3069.34,3765.6L3069.33,3765.59C3064.59,3758.47 3063.99,3749.35 3067.92,3741.75L3113.11,3654.41L3116.14,3646.18L3117.02,3637.59L3115.77,3629.04L3112.4,3620.94C3085.47,3573.89 3064.25,3523.16 3049.7,3469.68L3046.35,3461.57L3041.19,3454.65L3034.49,3449.2L3026.53,3445.51C2995.32,3435.58 2964.1,3425.65 2932.88,3415.73C2924.91,3413.2 2918.8,3406.65 2917.13,3398.46C2911.28,3369.62 2909.48,3337.19 2909.48,3298.81C2909.48,3260.69 2911.26,3228.44 2917.01,3199.75C2918.7,3191.36 2924.72,3184.48 2932.88,3181.88L3026.53,3152.11L3034.49,3148.42L3041.19,3142.97L3046.35,3136.05L3049.7,3127.94C3064.25,3074.46 3085.47,3023.72 3112.4,2976.68L3115.77,2968.58L3117.02,2960.03L3116.14,2951.44L3113.11,2943.2L3067.92,2855.87C3064.08,2848.44 3064.38,2839.49 3069,2832.52C3085.26,2807.99 3106.91,2783.78 3134.05,2756.64C3161,2729.69 3185.06,2708.15 3209.42,2691.93C3216.55,2687.18 3225.67,2686.58 3233.28,2690.51L3320.61,2735.71L3328.85,2738.73L3337.44,2739.62L3345.99,2738.37L3354.09,2735C3401.13,2708.06 3451.86,2686.84 3505.35,2672.29L3513.45,2668.95L3520.38,2663.78L3525.83,2657.08L3529.51,2649.12L3559.29,2555.47C3561.82,2547.5 3568.37,2541.39 3576.56,2539.73C3605.4,2533.88 3637.83,2532.07 3676.21,2532.07C3714.33,2532.07 3746.58,2533.85 3775.27,2539.61C3783.66,2541.29 3790.54,2547.31 3793.14,2555.47C3803.06,2586.69 3812.99,2617.91 3822.92,2649.13L3826.6,2657.09L3832.05,2663.78L3838.98,2668.95L3847.09,2672.29C3900.56,2686.84 3951.3,2708.06 3998.34,2735L4006.44,2738.37L4014.99,2739.62L4023.59,2738.73L4031.82,2735.71L4119.15,2690.51C4126.58,2686.67 4135.53,2686.98 4142.5,2691.6C4167.03,2707.85 4191.23,2729.5 4218.37,2756.64C4245.33,2783.6 4266.87,2807.66 4283.09,2832.01C4287.84,2839.14 4288.44,2848.27 4284.5,2855.88C4269.44,2884.99 4254.38,2914.09 4239.31,2943.2L4236.28,2951.44L4235.4,2960.03L4236.65,2968.58L4240.02,2976.68C4266.96,3023.72 4288.18,3074.46 4302.73,3127.94L4306.07,3136.05L4311.24,3142.97L4317.94,3148.42L4325.9,3152.11C4357.12,3162.03 4388.33,3171.96 4419.55,3181.88C4427.52,3184.42 4433.63,3190.97 4435.29,3199.16C4441.14,3228 4442.95,3260.43 4442.95,3298.81C4442.95,3336.92 4441.17,3369.17 4435.42,3397.86C4433.73,3406.26 4427.71,3413.14 4419.55,3415.73C4388.33,3425.65 4357.1,3435.58 4325.89,3445.51L4317.93,3449.2L4311.23,3454.65L4306.07,3461.57L4302.73,3469.68C4288.18,3523.16 4266.96,3573.89 4240.02,3620.94L4236.65,3629.04L4235.4,3637.59L4236.29,3646.18L4239.31,3654.42C4254.38,3683.52 4269.44,3712.63 4284.5,3741.74C4288.35,3749.17 4288.05,3758.12 4283.43,3765.09L4283.42,3765.1ZM3676.21,3838.55C3974.3,3838.55 4215.95,3596.9 4215.95,3298.81C4215.95,3000.72 3974.3,2759.07 3676.21,2759.07C3378.12,2759.07 3136.47,3000.72 3136.47,3298.81C3136.47,3596.9 3378.12,3838.55 3676.21,3838.55Z" style="fill:rgb(85,77,65);"/>
            </g>
        </g>
        <g transform="matrix(1,0,0,1,1233.33,852.952)">
            <g transform="matrix(1,0,0,1,1342.88,1415.86)">
                <path d="M342.572,1214.74L342.577,1214.74L342.566,1214.74L342.572,1214.74L335.455,1213.63L335.478,1213.64C337.77,1214.37 340.161,1214.74 342.566,1214.74C342.395,1214.76 339.733,1214.99 335.478,1213.64L335.461,1213.64C360.72,1221.66 385.977,1229.7 411.235,1237.73C425.168,1283.98 443.632,1328.28 466.112,1370.09C466.111,1370.09 429.539,1440.76 429.539,1440.76C413.899,1470.98 415.999,1507.28 434.862,1535.59C453.338,1563.34 477.633,1590.95 508.338,1621.66C508.338,1621.66 508.338,1621.66 508.339,1621.66C539.276,1652.6 567.08,1677.03 595.039,1695.56L608.024,1699.48L608.02,1699.48L608.03,1699.48L608.003,1699.48L608.02,1699.48L595.044,1695.57L595.085,1695.59C598.918,1698.12 603.41,1699.47 608.003,1699.48C607.621,1699.53 602.075,1700.21 595.085,1695.59L595.054,1695.57C623.174,1714.19 659.268,1715.96 689.227,1700.47L689.226,1700.47C682.977,1703.7 678.565,1703.11 678.437,1703.09L678.438,1703.09C682.192,1703.09 685.891,1702.19 689.225,1700.47L689.226,1700.47L689.234,1700.46L689.233,1700.46L689.225,1700.47L678.438,1703.09L678.438,1703.09L678.437,1703.09L678.437,1703.09L678.43,1703.09L678.437,1703.09L678.434,1703.09L678.438,1703.09L689.233,1700.46L689.237,1700.46C712.794,1688.27 736.352,1676.08 759.909,1663.89C801.723,1686.37 846.016,1704.83 892.273,1718.77C900.304,1744.02 908.335,1769.28 916.366,1794.54C926.679,1826.97 953.821,1851.15 987.188,1857.83C1019.87,1864.39 1056.58,1866.74 1100,1866.74C1143.76,1866.74 1180.69,1864.35 1213.57,1857.68L1213.57,1857.68C1210.67,1858.27 1208.97,1858.15 1208.9,1858.15L1208.9,1858.15C1210.47,1858.15 1212.03,1857.99 1213.57,1857.68L1213.57,1857.68L1213.57,1857.68L1208.9,1858.15L1208.9,1858.15L1208.9,1858.15L1208.9,1858.15L1208.9,1858.15L1208.9,1858.15L1208.9,1858.15L1213.57,1857.68L1213.58,1857.68C1246.64,1850.97 1273.41,1826.7 1283.63,1794.55L1283.63,1794.55L1283.63,1794.55L1283.63,1794.55L1283.63,1794.55L1283.64,1794.54L1283.64,1794.54L1283.63,1794.55L1261.24,1810.92L1261.24,1810.92L1261.24,1810.92L1261.24,1810.92L1261.24,1810.92L1283.64,1794.54L1283.64,1794.54C1291.66,1769.28 1299.7,1744.02 1307.73,1718.77C1353.99,1704.83 1398.28,1686.37 1440.09,1663.89C1463.65,1676.08 1487.2,1688.27 1510.76,1700.46L1521.56,1703.09L1521.56,1703.09L1521.57,1703.1L1521.54,1703.09L1521.56,1703.09L1510.76,1700.46L1510.8,1700.48C1514.12,1702.19 1517.8,1703.09 1521.54,1703.09C1521.21,1703.14 1516.87,1703.62 1510.8,1700.48L1510.77,1700.47C1540.99,1716.1 1577.28,1714 1605.59,1695.14C1605.59,1695.14 1605.59,1695.14 1605.59,1695.14C1633.34,1676.66 1660.95,1652.36 1691.66,1621.66C1722.6,1590.72 1747.04,1562.92 1765.57,1534.95C1784.2,1506.83 1785.97,1470.74 1770.47,1440.77L1770.47,1440.77L1770.46,1440.76L1770.46,1440.76L1770.46,1440.76L1770.46,1440.76C1758.27,1417.2 1746.08,1393.65 1733.89,1370.09C1756.37,1328.27 1774.83,1283.98 1788.77,1237.73C1814.02,1229.69 1839.28,1221.66 1864.54,1213.64L1864.53,1213.64C1860.23,1215 1857.55,1214.75 1857.43,1214.74C1859.24,1214.74 1861.04,1214.53 1862.8,1214.12L1862.8,1214.12L1863.06,1214.05L1864.53,1213.64L1864.54,1213.64L1864.54,1213.64L1863.06,1214.05L1862.8,1214.12L1861.03,1214.46L1859.23,1214.67L1857.43,1214.74L1857.42,1214.74L1857.43,1214.74L1857.42,1214.74L1857.42,1214.74L1857.42,1214.74L1857.43,1214.74L1864.54,1213.64L1864.54,1213.63C1896.97,1203.33 1921.14,1176.19 1927.84,1142.83L1927.84,1142.83L1927.84,1142.83L1927.84,1142.83L1927.84,1142.83L1927.84,1142.82L1927.84,1142.82L1927.84,1142.83L1904.8,1161.7L1904.8,1161.7L1927.84,1142.82L1927.84,1142.82C1934.39,1110.13 1936.74,1073.42 1936.74,1030C1936.74,986.245 1934.35,949.306 1927.68,916.432L1927.68,916.432L1927.68,916.427L1927.68,916.427L1927.68,916.427L1927.68,916.424C1920.96,883.363 1896.7,856.59 1864.55,846.367C1864.55,846.367 1864.55,846.366 1864.55,846.366C1839.28,838.334 1814.03,830.302 1788.77,822.271C1774.83,776.015 1756.37,731.722 1733.89,689.909C1746.08,666.353 1758.27,642.797 1770.46,619.24L1770.46,619.241C1763.32,633.026 1749.9,631.958 1749.6,631.932L1749.6,631.932C1758.38,631.93 1766.42,627.036 1770.46,619.241L1770.46,619.241L1770.47,619.231L1770.47,619.231L1770.46,619.241L1749.6,631.932L1749.6,631.932L1749.6,631.932L1749.6,631.932L1749.59,631.937L1749.6,631.932L1749.6,631.932L1749.6,631.932L1770.47,619.231L1770.47,619.226C1786.1,589.008 1784,552.735 1765.14,524.413L1765.14,524.413L1765.14,524.408L1765.14,524.408L1765.14,524.408L1765.14,524.406C1746.66,496.66 1722.36,469.044 1691.66,438.339C1660.72,407.398 1632.92,382.965 1604.95,364.435C1576.82,345.799 1540.74,344.029 1510.77,359.535C1510.77,359.536 1440.1,396.11 1440.1,396.11C1398.28,373.63 1353.99,355.166 1307.73,341.234C1299.7,315.978 1291.66,290.721 1283.64,265.464C1283.64,265.464 1283.64,265.464 1283.64,265.463C1273.33,233.031 1246.19,208.86 1212.82,202.167C1212.82,202.167 1212.82,202.167 1212.82,202.167C1180.13,195.612 1143.42,193.264 1100,193.264C1056.25,193.264 1019.31,195.648 986.433,202.319C953.367,209.027 926.59,233.302 916.367,265.454C916.367,265.454 892.272,341.235 892.272,341.235C846.015,355.167 801.722,373.631 759.907,396.11C759.908,396.11 689.237,359.539 689.237,359.539C659.014,343.898 622.733,345.997 594.409,364.859C566.662,383.336 539.044,407.632 508.338,438.338C477.399,469.277 452.966,497.083 434.437,525.045C415.8,553.168 414.031,589.267 429.536,619.231C429.536,619.232 466.111,689.908 466.111,689.908C443.632,731.721 425.168,776.015 411.235,822.272C411.236,822.272 335.459,846.365 335.459,846.365C303.029,856.677 278.859,883.815 272.168,917.181C265.613,949.866 263.264,986.575 263.264,1030C263.264,1073.76 265.649,1110.69 272.319,1143.57C272.319,1143.57 272.319,1143.57 272.319,1143.57C279.026,1176.63 303.3,1203.41 335.452,1213.63L342.575,1214.74L342.572,1214.74ZM991.703,1835.28C991.703,1835.28 991.703,1835.28 991.703,1835.28L991.703,1835.28ZM1262.2,1810.9L1262.93,1810.86C1261.92,1810.94 1261.29,1810.92 1261.24,1810.92L1261.24,1810.92L1261.24,1810.92L1261.24,1810.92L1261.24,1810.92L1262.2,1810.9ZM1283.24,1795.69C1280.66,1802.55 1275.08,1807.7 1268.29,1809.84C1273.41,1808.31 1279.98,1804.61 1283.24,1795.69ZM1707.22,1496.29L1707.21,1496.29L1707.21,1496.3C1705.49,1498.9 1704.33,1501.77 1703.76,1504.73C1702.37,1513.56 1708.4,1520.67 1714.64,1525.53L1712.72,1528.07C1710.02,1526.06 1707.75,1523.45 1706.1,1520.39C1703.48,1515.52 1702.71,1509.98 1703.76,1504.73C1704.16,1502.07 1705.25,1499.25 1707.21,1496.3L1707.21,1496.29C1690.96,1520.82 1669.3,1545.02 1642.16,1572.16C1615.21,1599.12 1591.14,1620.66 1566.79,1636.88C1559.66,1641.62 1550.53,1642.23 1542.93,1638.29C1513.82,1623.22 1484.72,1608.17 1455.61,1593.1C1455.61,1593.1 1447.37,1590.07 1447.37,1590.07C1447.37,1590.07 1438.78,1589.19 1438.78,1589.19L1430.23,1590.44C1430.23,1590.44 1422.13,1593.81 1422.13,1593.81C1375.09,1620.75 1324.35,1641.97 1270.87,1656.52C1270.87,1656.52 1262.77,1659.86 1262.77,1659.86C1262.77,1659.86 1255.84,1665.02 1255.84,1665.02C1255.84,1665.02 1250.39,1671.72 1250.39,1671.72C1250.39,1671.72 1246.71,1679.68 1246.71,1679.68C1236.78,1710.9 1226.85,1742.11 1216.93,1773.33C1214.39,1781.3 1207.84,1787.41 1199.65,1789.08C1170.81,1794.93 1138.38,1796.74 1100,1796.74C1061.88,1796.74 1029.64,1794.95 1000.95,1789.19L1000.95,1789.19L1000.94,1789.19L1000.94,1789.19L1000.94,1789.19L1000.93,1789.19C992.542,1787.51 985.669,1781.48 983.075,1773.33C983.074,1773.33 983.074,1773.32 983.074,1773.32C973.149,1742.11 963.224,1710.89 953.298,1679.68C953.298,1679.68 949.614,1671.72 949.614,1671.72L944.164,1665.02L937.239,1659.86C937.239,1659.86 929.132,1656.52 929.132,1656.52C875.65,1641.97 824.917,1620.75 777.876,1593.81C777.876,1593.81 769.776,1590.44 769.776,1590.44C769.776,1590.44 761.225,1589.19 761.225,1589.19L752.629,1590.07C752.629,1590.07 744.393,1593.1 744.393,1593.1C715.284,1608.17 686.175,1623.22 657.066,1638.29C649.637,1642.13 640.681,1641.83 633.708,1637.21C609.181,1620.95 584.976,1599.3 557.835,1572.16C530.882,1545.21 509.342,1521.15 493.124,1496.79L493.124,1496.79L493.122,1496.79L493.122,1496.79L493.122,1496.79L493.121,1496.79C488.376,1489.66 487.772,1480.54 491.706,1472.94C491.706,1472.94 536.901,1385.61 536.902,1385.61L539.925,1377.37C539.925,1377.37 540.809,1368.78 540.809,1368.78L539.561,1360.23C539.561,1360.23 536.191,1352.13 536.191,1352.13C509.254,1305.08 488.033,1254.35 473.483,1200.87C473.483,1200.87 470.14,1192.77 470.14,1192.77C470.14,1192.77 464.978,1185.84 464.978,1185.84L458.278,1180.39C458.278,1180.39 450.321,1176.71 450.321,1176.71C419.103,1166.78 387.886,1156.85 356.668,1146.93C348.699,1144.39 342.584,1137.85 340.921,1129.65C335.071,1100.81 333.264,1068.38 333.264,1030C333.264,991.881 335.047,959.636 340.802,930.945C340.802,930.945 340.802,930.945 340.802,930.944C342.485,922.549 348.51,915.669 356.67,913.075C356.67,913.075 450.316,883.299 450.316,883.299C450.316,883.299 458.275,879.615 458.275,879.615C458.275,879.615 464.977,874.165 464.977,874.165L470.139,867.239C470.139,867.239 473.484,859.132 473.484,859.132C488.033,805.649 509.253,754.915 536.19,707.876C536.19,707.876 539.561,699.777 539.561,699.777C539.561,699.777 540.809,691.227 540.809,691.227L539.925,682.632C539.925,682.632 536.902,674.397 536.902,674.397C536.902,674.397 491.706,587.061 491.706,587.061C487.863,579.635 488.168,570.683 492.787,563.713C492.787,563.713 492.787,563.713 492.788,563.713C509.042,539.183 530.694,514.977 557.835,487.836C557.835,487.836 557.836,487.836 557.836,487.836C584.79,460.882 608.85,439.342 633.207,423.123C633.207,423.123 633.207,423.123 633.207,423.123C640.335,418.377 649.46,417.772 657.065,421.707C657.065,421.707 744.397,466.901 744.397,466.901C744.397,466.901 752.632,469.924 752.632,469.924C752.632,469.924 761.227,470.808 761.227,470.808C761.227,470.808 769.776,469.56 769.776,469.56C769.776,469.56 777.875,466.189 777.875,466.189C824.916,439.252 875.65,418.032 929.132,403.482C929.132,403.482 937.239,400.138 937.239,400.138C937.239,400.138 944.165,394.976 944.165,394.976C944.165,394.976 949.615,388.275 949.615,388.275C949.615,388.275 953.298,380.316 953.298,380.316C953.298,380.316 983.077,286.664 983.077,286.664C985.61,278.697 992.157,272.583 1000.35,270.921C1000.35,270.921 1000.35,270.921 1000.35,270.921C1029.19,265.07 1061.62,263.264 1100,263.264C1138.12,263.264 1170.36,265.046 1199.06,270.801C1207.45,272.484 1214.33,278.505 1216.92,286.665C1226.85,317.883 1236.78,349.102 1246.71,380.32C1246.71,380.32 1250.39,388.278 1250.39,388.278C1250.39,388.278 1255.84,394.977 1255.84,394.977C1255.84,394.977 1262.77,400.139 1262.77,400.139C1262.77,400.139 1270.87,403.482 1270.87,403.482C1324.35,418.032 1375.09,439.251 1422.13,466.189C1422.13,466.189 1430.23,469.561 1430.23,469.561C1430.23,469.561 1438.78,470.809 1438.78,470.809C1438.78,470.809 1447.37,469.925 1447.37,469.925C1447.37,469.925 1455.61,466.901 1455.61,466.901C1455.61,466.901 1542.93,421.707 1542.93,421.707C1550.36,417.863 1559.32,418.169 1566.29,422.789C1566.29,422.789 1566.29,422.789 1566.29,422.789C1590.82,439.043 1615.02,460.694 1642.16,487.835C1642.16,487.836 1642.16,487.836 1642.16,487.836C1669.11,514.788 1690.65,538.848 1706.88,563.203C1711.62,570.335 1712.23,579.464 1708.29,587.073C1693.22,616.18 1678.17,645.286 1663.1,674.393C1663.1,674.393 1660.07,682.629 1660.07,682.629C1660.07,682.629 1659.19,691.225 1659.19,691.225C1659.19,691.225 1660.44,699.776 1660.44,699.776C1660.44,699.776 1663.81,707.877 1663.81,707.877C1690.75,754.916 1711.97,805.649 1726.52,859.132C1726.52,859.132 1729.86,867.24 1729.86,867.24C1729.86,867.24 1735.03,874.165 1735.03,874.165L1741.73,879.616C1741.73,879.616 1749.69,883.299 1749.69,883.299C1780.9,893.224 1812.11,903.15 1843.33,913.075C1851.3,915.61 1857.41,922.16 1859.08,930.356L1859.08,930.356C1864.93,959.193 1866.74,991.618 1866.74,1030C1866.74,1068.12 1864.95,1100.36 1859.2,1129.06C1857.52,1137.45 1851.49,1144.33 1843.34,1146.92C1812.11,1156.85 1780.89,1166.78 1749.68,1176.71C1749.68,1176.71 1741.72,1180.39 1741.72,1180.39C1741.72,1180.39 1735.02,1185.84 1735.02,1185.84C1735.02,1185.84 1729.86,1192.77 1729.86,1192.77C1729.86,1192.77 1726.52,1200.87 1726.52,1200.87C1711.97,1254.35 1690.75,1305.08 1663.81,1352.13C1663.81,1352.13 1660.44,1360.23 1660.44,1360.23C1660.44,1360.23 1659.19,1368.78 1659.19,1368.78L1660.07,1377.38L1663.1,1385.61C1678.17,1414.72 1693.22,1443.82 1708.29,1472.93C1712.13,1480.36 1711.84,1489.31 1707.22,1496.29L1707.22,1496.29ZM1526.58,1682.47L1521.57,1703.1C1531.69,1703.1 1540.58,1696.63 1543.8,1687.2C1537.94,1686.38 1532.15,1684.81 1526.58,1682.47ZM613.889,1680.02L608.03,1699.48C617.271,1699.48 625.54,1694.08 629.34,1685.87C624.02,1684.56 618.831,1682.6 613.889,1680.02ZM1100,1569.74C1398.09,1569.74 1639.74,1328.09 1639.74,1030C1639.74,731.911 1398.09,490.259 1100,490.259C801.911,490.259 560.26,731.911 560.26,1030C560.26,1328.09 801.911,1569.74 1100,1569.74ZM1746.17,1522.56C1741.8,1528.95 1734.56,1532.77 1726.81,1532.77L1726.81,1532.77L1726.82,1532.77C1734.56,1532.76 1741.8,1528.94 1746.17,1522.56ZM1720.62,1517.37L1719.75,1518.61L1719.43,1519.04L1726.8,1532.76L1726.8,1532.77C1726.68,1532.72 1720.57,1530.15 1714.64,1525.53L1716.23,1523.42L1719.43,1519.04L1707.22,1496.29C1709.44,1492.93 1715.76,1505.96 1720.62,1517.37ZM454.004,1522.84L454.004,1522.84C454.004,1522.84 454.004,1522.84 454.004,1522.84L454.004,1522.84ZM1746.39,1522.25L1746.39,1522.25L1746.39,1522.25L1746.39,1522.25ZM1746.39,1522.25L1746.39,1522.25L1746.39,1522.25L1746.39,1522.25ZM1100,1499.74C840.571,1499.74 630.26,1289.43 630.26,1030C630.26,770.571 840.571,560.259 1100,560.259C1359.43,560.259 1569.74,770.571 1569.74,1030C1569.74,1289.43 1359.43,1499.74 1100,1499.74ZM345.973,1192.84L364.815,1198.84C361.625,1208.2 352.77,1214.74 342.577,1214.74L345.973,1192.84ZM1854.03,1192.84L1857.42,1214.74C1857.42,1214.74 1849.07,1206.08 1843.7,1196.13L1854.03,1192.84ZM1904.8,1161.7L1904.8,1161.7L1904.8,1161.7L1904.8,1161.7ZM1918.09,1157.58L1917.88,1157.72L1917.9,1157.7L1918.09,1157.58ZM1927.54,1144.1C1926.09,1149.71 1922.67,1154.43 1918.11,1157.56C1922.11,1155 1925.87,1150.84 1927.54,1144.1Z" style="fill:rgb(85,77,65);"/>
            </g>
        </g>
    </g>
</svg>
