<?xml version="1.0" encoding="UTF-8" standalone="no"?>
<!DOCTYPE svg PUBLIC "-//W3C//DTD SVG 1.1//EN" "http://www.w3.org/Graphics/SVG/1.1/DTD/svg11.dtd">
<svg width="100%" height="100%" viewBox="0 0 23 20" version="1.1" xmlns="http://www.w3.org/2000/svg" xmlns:xlink="http://www.w3.org/1999/xlink" xml:space="preserve" xmlns:serif="http://www.serif.com/" style="fill-rule:evenodd;clip-rule:evenodd;stroke-linejoin:round;stroke-miterlimit:2;">
    <g transform="matrix(1,0,0,1,-286.551,-107.2)">
        <g>
            <g transform="matrix(2.46069e-17,0.40186,-0.40186,2.46069e-17,336.895,-84.4338)">
                <g transform="matrix(1.52372e-16,-2.48843,2.48843,1.52372e-16,210.107,838.338)">
                    <path d="M290.451,116.737L290.451,118.296C290.451,118.572 290.227,118.796 289.951,118.796C289.675,118.796 289.451,118.572 289.451,118.296L289.451,116.737L290.451,116.737Z"/>
                </g>
                <g transform="matrix(1,0,0,1,428.097,0)">
                    <path d="M68.692,110.482C68.207,109.996 68.207,109.208 68.692,108.722C69.178,108.236 69.966,108.236 70.452,108.722L77.72,115.99C78.206,116.476 78.206,117.263 77.72,117.749L70.556,124.913C70.071,125.398 69.282,125.398 68.797,124.913C68.311,124.427 68.311,123.639 68.797,123.153L75.08,116.869L68.692,110.482Z"/>
                </g>
            </g>
            <path d="M290.441,116.974C290.441,117.25 290.217,117.474 289.941,117.474C289.665,117.474 289.441,117.25 289.441,116.974C289.441,111.579 293.82,107.2 299.215,107.2C304.609,107.2 308.989,111.579 308.989,116.974C308.989,122.368 304.609,126.748 299.215,126.748C295.478,126.748 292.228,124.646 290.584,121.562C290.454,121.318 290.546,121.015 290.79,120.885C291.033,120.755 291.337,120.848 291.466,121.091C292.943,123.861 295.86,125.748 299.215,125.748C304.057,125.748 307.989,121.816 307.989,116.974C307.989,112.131 304.057,108.2 299.215,108.2C294.372,108.2 290.441,112.131 290.441,116.974Z"/>
            <path d="M298.584,113.049C298.584,112.773 298.808,112.549 299.084,112.549C299.36,112.549 299.584,112.773 299.584,113.049L299.584,117.68L303.371,120.717C303.587,120.889 303.621,121.204 303.449,121.419C303.276,121.635 302.961,121.669 302.746,121.497L298.771,118.31C298.653,118.215 298.584,118.072 298.584,117.92L298.584,113.049Z"/>
        </g>
    </g>
</svg>
