<?xml version="1.0" encoding="UTF-8" standalone="no"?>
<!DOCTYPE svg PUBLIC "-//W3C//DTD SVG 1.1//EN" "http://www.w3.org/Graphics/SVG/1.1/DTD/svg11.dtd">
<svg width="100%" height="100%" viewBox="0 0 28 27" version="1.1" xmlns="http://www.w3.org/2000/svg" xmlns:xlink="http://www.w3.org/1999/xlink" xml:space="preserve" xmlns:serif="http://www.serif.com/" style="fill-rule:evenodd;clip-rule:evenodd;stroke-linecap:round;stroke-linejoin:round;stroke-miterlimit:1.5;">
    <g transform="matrix(1,0,0,1,-210.245,-107.518)">
        <g>
            <g transform="matrix(2.46069e-17,-0.40186,0.40186,2.46069e-17,176.936,321.116)">
                <g transform="matrix(1.25561,0,0,1,414.852,-0.20862)">
                    <path d="M41.153,118.27C40.606,118.27 40.162,117.713 40.162,117.026C40.162,116.339 40.606,115.782 41.153,115.782L71.38,115.782C71.927,115.782 72.371,116.339 72.371,117.026C72.371,117.713 71.927,118.27 71.38,118.27L41.153,118.27Z"/>
                </g>
                <g transform="matrix(1,0,0,1,428.097,0)">
                    <path d="M68.692,110.482C68.207,109.996 68.207,109.208 68.692,108.722C69.178,108.236 69.966,108.236 70.452,108.722L77.72,115.99C78.206,116.476 78.206,117.263 77.72,117.749L70.556,124.913C70.071,125.398 69.282,125.398 68.797,124.913C68.311,124.427 68.311,123.639 68.797,123.153L75.08,116.869L68.692,110.482Z"/>
                </g>
            </g>
            <g>
                <path d="M220.747,125.383C220.747,125.504 220.699,125.62 220.613,125.706C220.527,125.791 220.411,125.839 220.29,125.839C218.552,125.839 212.444,125.839 212.444,125.839C211.861,125.839 211.301,125.608 210.889,125.195C210.476,124.783 210.245,124.223 210.245,123.64L210.245,109.718C210.245,109.134 210.476,108.575 210.889,108.162C211.301,107.75 211.861,107.518 212.444,107.518L235.315,107.518C235.899,107.518 236.458,107.75 236.871,108.162C237.283,108.575 237.515,109.134 237.515,109.718L237.515,123.64C237.515,124.223 237.283,124.783 236.871,125.195C236.458,125.608 235.899,125.839 235.315,125.839C235.315,125.839 229.321,125.839 227.559,125.839C227.432,125.839 227.309,125.789 227.219,125.698C227.129,125.608 227.078,125.486 227.078,125.358C227.078,125.344 227.078,125.329 227.078,125.314C227.078,125.052 227.291,124.839 227.553,124.839C229.307,124.839 235.315,124.839 235.315,124.839C235.633,124.839 235.939,124.713 236.164,124.488C236.389,124.263 236.515,123.958 236.515,123.64L236.515,109.718C236.515,109.399 236.389,109.094 236.164,108.869C235.939,108.644 235.633,108.518 235.315,108.518L212.444,108.518C212.126,108.518 211.821,108.644 211.596,108.869C211.371,109.094 211.245,109.399 211.245,109.718L211.245,123.64C211.245,123.958 211.371,124.263 211.596,124.488C211.821,124.713 212.126,124.839 212.444,124.839C212.444,124.839 218.457,124.839 220.248,124.839C220.524,124.839 220.747,125.062 220.747,125.338C220.747,125.353 220.747,125.368 220.747,125.383Z"/>
            </g>
            <path d="M211.166,113.347L236.687,113.347" style="fill:none;stroke:black;stroke-width:1px;"/>
        </g>
    </g>
</svg>
