<?xml version="1.0" encoding="UTF-8" standalone="no"?>
<!DOCTYPE svg PUBLIC "-//W3C//DTD SVG 1.1//EN" "http://www.w3.org/Graphics/SVG/1.1/DTD/svg11.dtd">
<svg width="100%" height="100%" viewBox="0 0 29 23" version="1.1" xmlns="http://www.w3.org/2000/svg" xmlns:xlink="http://www.w3.org/1999/xlink" xml:space="preserve" xmlns:serif="http://www.serif.com/" style="fill-rule:evenodd;clip-rule:evenodd;stroke-linejoin:round;stroke-miterlimit:2;">
    <g transform="matrix(1,0,0,1,0.000166264,0.000217967)">
        <g transform="matrix(1,0,0,1,-97.7908,-48.4147)">
            <g transform="matrix(0.624701,0,0,0.624701,38.7339,24.093)">
                <g>
                    <path d="M139.763,75.208L95.337,75.208L94.536,74.405C94.536,71.484 95.697,68.683 97.762,66.617C99.827,64.552 102.629,63.392 105.55,63.392L129.55,63.392C132.471,63.392 135.272,64.552 137.337,66.617C139.403,68.683 140.563,71.484 140.563,74.405L139.763,75.208ZM96.171,73.607L138.929,73.607C138.741,71.403 137.782,69.326 136.206,67.749C134.44,65.984 132.046,64.992 129.55,64.992L105.55,64.992C103.053,64.992 100.659,65.984 98.894,67.749C97.318,69.326 96.358,71.403 96.171,73.607Z" style="fill:white;"/>
                </g>
            </g>
            <g transform="matrix(0.624701,0,0,0.624701,38.7339,25.3424)">
                <path d="M118.405,36.933C124.171,36.933 128.852,41.615 128.852,47.381C128.852,53.147 124.171,57.828 118.405,57.828C112.639,57.828 107.958,53.147 107.958,47.381C107.958,41.615 112.639,36.933 118.405,36.933ZM118.405,38.534C113.522,38.534 109.558,42.498 109.558,47.381C109.558,52.263 113.522,56.227 118.405,56.227C123.288,56.227 127.252,52.263 127.252,47.381C127.252,42.498 123.288,38.534 118.405,38.534Z" style="fill:white;"/>
            </g>
        </g>
    </g>
</svg>
