<?xml version="1.0" encoding="UTF-8" standalone="no"?>
<!DOCTYPE svg PUBLIC "-//W3C//DTD SVG 1.1//EN" "http://www.w3.org/Graphics/SVG/1.1/DTD/svg11.dtd">
<svg width="100%" height="100%" viewBox="0 0 28 23" version="1.1" xmlns="http://www.w3.org/2000/svg" xmlns:xlink="http://www.w3.org/1999/xlink" xml:space="preserve" xmlns:serif="http://www.serif.com/" style="fill-rule:evenodd;clip-rule:evenodd;stroke-linejoin:round;stroke-miterlimit:2;">
    <g transform="matrix(1,0,0,1,-0.00039192,-6.52482e-05)">
        <g transform="matrix(1,0,0,1,-99.8968,-98.5463)">
            <g>
                <g transform="matrix(0.816728,0,0,1,23.2146,0)">
                    <path d="M124.586,103.118C125.3,103.118 125.985,103.35 126.49,103.762C126.996,104.175 127.279,104.734 127.279,105.318L127.279,119.24C127.279,119.823 126.996,120.383 126.49,120.795C125.985,121.208 125.3,121.439 124.586,121.439L96.583,121.439C95.869,121.439 95.184,121.208 94.678,120.795C94.173,120.383 93.89,119.823 93.89,119.24L93.89,105.318C93.89,104.734 94.173,104.175 94.678,103.762C95.184,103.35 95.869,103.118 96.583,103.118L124.586,103.118ZM124.586,104.118L96.583,104.118C96.193,104.118 95.82,104.244 95.544,104.469C95.269,104.694 95.114,105 95.114,105.318L95.114,119.24C95.114,119.558 95.269,119.863 95.544,120.088C95.82,120.313 96.193,120.439 96.583,120.439L124.586,120.439C124.976,120.439 125.349,120.313 125.625,120.088C125.9,119.863 126.055,119.558 126.055,119.24L126.055,105.318C126.055,105 125.9,104.694 125.625,104.469C125.349,104.244 124.976,104.118 124.586,104.118Z" style="fill:white;"/>
                </g>
                <g transform="matrix(0.321101,0,0,0.387069,85.9942,68.8192)">
                    <path d="M121.374,102.326C125.157,102.326 128.224,104.871 128.224,108.009L128.224,116.548C128.224,119.687 125.157,122.231 121.374,122.231L99.795,122.231C96.012,122.231 92.945,119.687 92.945,116.548L92.945,108.009C92.945,104.871 96.012,102.326 99.795,102.326L121.374,102.326ZM121.374,104.91L99.795,104.91C97.732,104.91 96.059,106.297 96.059,108.009L96.059,116.548C96.059,118.26 97.732,119.648 99.795,119.648L121.374,119.648C123.437,119.648 125.11,118.26 125.11,116.548L125.11,108.009C125.11,106.297 123.437,104.91 121.374,104.91Z" style="fill:white;"/>
                </g>
                <g transform="matrix(0.866025,-0.5,0.5,0.866025,-43.761,72.0222)">
                    <path d="M116.351,104.118C116.075,104.118 115.851,103.894 115.851,103.618C115.851,103.342 116.075,103.118 116.351,103.118L124.967,103.118C126.182,103.118 127.167,104.103 127.167,105.318C127.167,105.594 126.943,105.818 126.667,105.818C126.391,105.818 126.167,105.594 126.167,105.318C126.167,104.655 125.63,104.118 124.967,104.118L116.351,104.118Z" style="fill:white;"/>
                </g>
                <path d="M121.149,103.248C121.289,103.486 121.21,103.793 120.972,103.933C120.734,104.073 120.427,103.994 120.287,103.756L118.164,100.15C118.024,99.912 118.103,99.606 118.341,99.466C118.579,99.326 118.886,99.405 119.026,99.643L121.149,103.248Z" style="fill:white;"/>
            </g>
        </g>
    </g>
</svg>
