<?xml version="1.0" encoding="UTF-8" standalone="no"?>
<!DOCTYPE svg PUBLIC "-//W3C//DTD SVG 1.1//EN" "http://www.w3.org/Graphics/SVG/1.1/DTD/svg11.dtd">
<svg width="100%" height="100%" viewBox="0 0 35 29" version="1.1" xmlns="http://www.w3.org/2000/svg" xmlns:xlink="http://www.w3.org/1999/xlink" xml:space="preserve" xmlns:serif="http://www.serif.com/" style="fill-rule:evenodd;clip-rule:evenodd;stroke-linejoin:round;stroke-miterlimit:2;">
    <g transform="matrix(1,0,0,1,-39.7957,-46.2526)">
        <g transform="matrix(0.0674099,0,0,0.169821,31.2049,15.1151)">
            <path d="M347.019,183.355C353.498,183.355 359.712,184.377 364.293,186.195C368.875,188.014 371.448,190.48 371.448,193.052L371.448,223.435C371.448,226.007 368.875,228.474 364.293,230.292C359.712,232.111 353.498,233.133 347.019,233.133L151.87,233.133C145.391,233.133 139.177,232.111 134.596,230.292C130.015,228.474 127.441,226.007 127.441,223.435L127.441,193.052C127.441,190.48 130.015,188.014 134.596,186.195C139.177,184.377 145.391,183.355 151.87,183.355L347.019,183.355ZM347.019,189.243L151.87,189.243C149.325,189.243 146.885,189.645 145.086,190.359C143.286,191.073 142.275,192.042 142.276,193.052L142.276,223.435C142.275,224.445 143.286,225.414 145.086,226.129C146.885,226.843 149.325,227.244 151.871,227.244L347.019,227.244C349.564,227.244 352.004,226.843 353.803,226.129C355.603,225.414 356.614,224.445 356.614,223.435L356.614,193.052C356.614,192.042 355.603,191.073 353.803,190.359C352.004,189.645 349.563,189.243 347.019,189.243Z"/>
        </g>
        <g transform="matrix(-0.0674099,5.86012e-18,-2.92975e-17,-0.169821,82.9518,105.583)">
            <path d="M351.048,183.355C362.314,183.355 371.448,186.98 371.448,191.453L371.448,225.035C371.448,229.507 362.314,233.133 351.048,233.133L147.842,233.133C136.575,233.133 127.441,229.507 127.441,225.035L127.441,191.453C127.441,186.98 136.575,183.355 147.842,183.355L351.048,183.355ZM351.047,189.243L147.841,189.243C144.768,189.244 142.276,190.233 142.276,191.453L142.276,225.035C142.276,226.255 144.768,227.244 147.842,227.244L351.048,227.244C354.122,227.244 356.613,226.255 356.614,225.035L356.614,191.453C356.613,190.233 354.121,189.244 351.047,189.243Z"/>
        </g>
        <g transform="matrix(0.0674099,0,0,0.390906,31.2049,-16.0364)">
            <path d="M348.977,185.02C354.937,185.02 360.652,185.428 364.867,186.155C369.081,186.882 371.448,187.867 371.448,188.895L371.448,227.592C371.448,228.62 369.081,229.606 364.867,230.333C360.652,231.059 354.937,231.467 348.977,231.467L149.912,231.467C143.952,231.467 138.237,231.059 134.023,230.333C129.808,229.606 127.441,228.62 127.441,227.592L127.441,188.895C127.441,187.867 129.808,186.882 134.023,186.155C138.237,185.428 143.952,185.02 149.912,185.02L348.977,185.02ZM348.977,187.578L149.912,187.578C147.887,187.578 145.944,187.717 144.512,187.964C143.08,188.211 142.276,188.546 142.276,188.895L142.276,227.592C142.276,227.942 143.08,228.277 144.512,228.524C145.944,228.771 147.887,228.909 149.912,228.909L348.977,228.909C351.002,228.909 352.945,228.771 354.377,228.524C355.809,228.277 356.614,227.942 356.614,227.592L356.614,188.895C356.614,188.546 355.809,188.211 354.377,187.964C352.945,187.717 351.002,187.578 348.977,187.578Z"/>
        </g>
        <g transform="matrix(-0.0674099,5.86012e-18,-6.74389e-17,-0.390906,82.9518,136.735)">
            <path d="M350.422,185.02C362.034,185.02 371.448,186.644 371.448,188.646L371.448,227.841C371.448,229.844 362.034,231.467 350.422,231.467L148.467,231.467C136.855,231.467 127.441,229.844 127.441,227.841L127.441,188.646C127.441,186.644 136.855,185.02 148.467,185.02L350.422,185.02ZM350.421,187.578L148.467,187.578C145.048,187.578 142.275,188.056 142.276,188.646L142.276,227.841C142.275,228.431 145.048,228.909 148.468,228.909L350.422,228.909C353.842,228.909 356.614,228.431 356.614,227.841L356.614,188.646C356.614,188.056 353.841,187.578 350.421,187.578Z"/>
        </g>
    </g>
</svg>
