<?xml version="1.0" encoding="UTF-8" standalone="no"?>
<!DOCTYPE svg PUBLIC "-//W3C//DTD SVG 1.1//EN" "http://www.w3.org/Graphics/SVG/1.1/DTD/svg11.dtd">
<svg width="100%" height="100%" viewBox="0 0 28 23" version="1.1" xmlns="http://www.w3.org/2000/svg" xmlns:xlink="http://www.w3.org/1999/xlink" xml:space="preserve" xmlns:serif="http://www.serif.com/" style="fill-rule:evenodd;clip-rule:evenodd;stroke-linejoin:round;stroke-miterlimit:2;">
    <g transform="matrix(1,0,0,1,-0.00043492,-0.000222844)">
        <g transform="matrix(1,0,0,1,-155.327,-98.5872)">
            <g>
                <g transform="matrix(0.816728,0,0,1,78.6451,0)">
                    <path d="M124.586,103.118C125.3,103.118 125.985,103.35 126.49,103.762C126.996,104.175 127.279,104.734 127.279,105.318L127.279,119.24C127.279,119.823 126.996,120.383 126.49,120.795C125.985,121.208 125.3,121.439 124.586,121.439L96.583,121.439C95.869,121.439 95.184,121.208 94.678,120.795C94.173,120.383 93.89,119.823 93.89,119.24L93.89,105.318C93.89,104.734 94.173,104.175 94.678,103.762C95.184,103.35 95.869,103.118 96.583,103.118L124.586,103.118ZM124.586,104.118L96.583,104.118C96.193,104.118 95.82,104.244 95.544,104.469C95.269,104.694 95.114,105 95.114,105.318L95.114,119.24C95.114,119.558 95.269,119.863 95.544,120.088C95.82,120.313 96.193,120.439 96.583,120.439L124.586,120.439C124.976,120.439 125.349,120.313 125.625,120.088C125.9,119.863 126.055,119.558 126.055,119.24L126.055,105.318C126.055,105 125.9,104.694 125.625,104.469C125.349,104.244 124.976,104.118 124.586,104.118Z" style="fill:white;"/>
                </g>
                <g transform="matrix(0.385047,0,0,0.526133,126.382,44.5704)">
                    <path d="M94.573,113.161C94.549,113.162 94.525,113.162 94.502,113.162C93.813,113.162 93.242,112.767 93.205,112.263C93.204,112.246 93.203,112.229 93.203,112.211L93.203,106.848C93.203,104.539 95.761,102.668 98.916,102.668L122.253,102.668C125.408,102.668 127.966,104.539 127.966,106.848C127.966,108.359 127.909,110.241 127.965,112.13L127.919,112.406L127.787,112.64L127.59,112.832L127.328,112.989C127.156,113.069 126.664,113.197 125.882,113.238C123.623,113.357 117.454,113.238 112.381,113.268C104.095,113.318 95.776,113.113 94.573,113.161ZM95.8,111.259C98.75,111.282 105.566,111.408 112.36,111.368C116.868,111.341 123.129,111.316 125.35,111.307C125.328,109.701 125.369,108.14 125.369,106.848C125.368,105.589 123.974,104.568 122.253,104.568L98.916,104.568C97.195,104.568 95.8,105.589 95.8,106.849L95.8,111.259Z" style="fill:white;"/>
                </g>
                <g transform="matrix(1,0,0,1,-1.3775,-0.163923)">
                    <path d="M162.683,115.17C162.45,115.317 162.141,115.246 161.994,115.013C161.847,114.779 161.917,114.47 162.151,114.323L168.851,110.109C169.046,109.986 169.3,110.013 169.466,110.173L172.517,113.137L177.998,109.715C178.232,109.568 178.541,109.64 178.687,109.874C178.833,110.108 178.762,110.417 178.528,110.563L172.715,114.192C172.52,114.314 172.267,114.287 172.102,114.127L169.051,111.164L162.683,115.17Z" style="fill:white;"/>
                </g>
            </g>
        </g>
    </g>
</svg>
