<?xml version="1.0" encoding="UTF-8" standalone="no"?>
<!DOCTYPE svg PUBLIC "-//W3C//DTD SVG 1.1//EN" "http://www.w3.org/Graphics/SVG/1.1/DTD/svg11.dtd">
<svg width="100%" height="100%" viewBox="0 0 34 28" version="1.1" xmlns="http://www.w3.org/2000/svg" xmlns:xlink="http://www.w3.org/1999/xlink" xml:space="preserve" xmlns:serif="http://www.serif.com/" style="fill-rule:evenodd;clip-rule:evenodd;stroke-linejoin:round;stroke-miterlimit:2;">
    <g transform="matrix(1,0,0,1,-147.788,-100.418)">
        <g transform="matrix(1,0,0,1,0.0619724,-0.0146704)">
            <g transform="matrix(0.0449556,0,0,0.0449556,61.865,44.0953)">
                <path d="M1933.68,1280.31C1939.05,1281.39 1943.08,1282.22 1947.13,1283.07C1948.66,1274.64 1951.18,1265.18 1954.06,1260.67L1956.79,1257.28L1959.9,1254.96L1963.81,1253.54L1968.53,1253.51L1968.63,1253.53L1969.46,1253.68C2099.82,1274.83 2178.76,1298.66 2226.14,1320.88C2251.55,1332.79 2268.29,1344.47 2279.24,1355.12C2290.19,1344.47 2306.93,1332.79 2332.34,1320.88C2379.72,1298.66 2458.66,1274.83 2589.02,1253.68L2589.85,1253.53L2589.95,1253.51L2594.19,1253.18L2598.4,1253.74L2602.4,1255.2L2605.97,1257.52L2608.94,1260.59L2611.14,1264.26L2612.47,1268.33L2612.91,1272.59L2612.91,1282.74C2616.46,1282 2620.12,1281.25 2624.8,1280.31L2627.55,1279.97L2629.62,1279.77L2633.86,1280.24L2637.9,1281.63L2641.53,1283.92L2644.55,1286.99L2646.78,1290.67L2648.12,1294.75L2648.56,1299.01L2648.56,1757.57C2648.56,1768.06 2640.18,1778.33 2629.78,1780.41L2631.12,1780.06L2627.5,1780.65L2629.52,1780.47C2451.29,1813.46 2371.79,1833.33 2336.22,1851.48L2335.89,1852.33C2334.36,1855.26 2331.88,1858.18 2328.32,1860.76C2319.49,1867.18 2301.83,1872.23 2281.12,1872.5L2280.1,1872.52L2279.24,1872.52C2257.96,1872.52 2239.63,1867.49 2230.47,1860.98C2226.81,1858.38 2224.25,1855.44 2222.67,1852.48L2222.14,1851.14C2186.33,1833.19 2106.63,1813.3 1928.96,1780.47L1930.98,1780.65L1927.36,1780.06L1928.69,1780.41C1918.3,1778.33 1909.92,1768.06 1909.92,1757.57L1909.92,1299.01L1910.36,1294.75L1911.7,1290.67L1913.93,1286.98L1916.95,1283.91L1920.59,1281.63L1924.63,1280.24L1928.86,1279.77L1930.91,1279.97L1933.68,1280.31ZM1932.16,1302.69L1932.16,1757.57C1932.16,1758.04 1932.55,1758.47 1933,1758.59L1933.07,1758.6C2122.09,1793.54 2202.53,1814.85 2236.97,1833.81C2240.12,1835.54 2242.21,1838.66 2242.65,1842.17C2243.75,1842.91 2246.76,1844.85 2249.39,1845.82C2257.03,1848.63 2267.59,1850.28 2279.24,1850.28L2280.1,1850.28L2280.72,1850.26C2292,1850.12 2302.17,1848.45 2309.51,1845.66C2312.02,1844.71 2314.91,1842.81 2315.9,1842.14C2316.42,1838.79 2318.45,1835.82 2321.47,1834.14C2355.77,1814.98 2436.03,1793.66 2625.41,1758.6L2625.47,1758.59C2626.12,1758.47 2626.78,1758.41 2627.5,1758.41C2626.74,1758.41 2626.09,1758.48 2625.47,1758.59C2625.93,1758.47 2626.32,1758.04 2626.32,1757.57L2626.32,1302.69C2617.99,1304.37 2612.8,1305.51 2604.08,1307.34C2600.8,1308.03 2597.39,1307.21 2594.78,1305.1C2592.18,1302.99 2590.67,1299.81 2590.67,1296.46L2590.67,1275.95C2464.47,1296.53 2387.83,1319.42 2341.78,1341.02C2312.9,1354.57 2296.66,1367.23 2288.09,1378.49C2285.99,1381.26 2282.72,1382.88 2279.24,1382.88C2275.76,1382.88 2272.49,1381.26 2270.39,1378.49C2261.82,1367.23 2245.58,1354.57 2216.7,1341.02C2171.14,1319.65 2095.62,1297.01 1971.79,1276.6C1970.33,1282.4 1967.81,1292.87 1967.81,1296.46C1967.81,1299.81 1966.3,1302.99 1963.7,1305.1C1961.1,1307.21 1957.68,1308.03 1954.4,1307.34C1945.68,1305.51 1940.49,1304.37 1932.16,1302.69ZM2593.98,1275.39C2593.98,1275.39 2593.99,1275.39 2593.99,1275.39L2593.98,1275.39ZM1964.64,1275.41L1964.6,1275.41C1964.61,1275.41 1964.62,1275.41 1964.64,1275.41Z"/>
            </g>
            <g transform="matrix(1,0,0,1,-0.283811,0.367385)">
                <path d="M164.118,107.78C164.118,107.504 164.342,107.28 164.618,107.28C164.894,107.28 165.118,107.504 165.118,107.78L165.118,124.581C165.118,124.857 164.894,125.081 164.618,125.081C164.342,125.081 164.118,124.857 164.118,124.581L164.118,107.78Z"/>
            </g>
        </g>
    </g>
</svg>
