<?xml version="1.0" encoding="UTF-8" standalone="no"?>
<!DOCTYPE svg PUBLIC "-//W3C//DTD SVG 1.1//EN" "http://www.w3.org/Graphics/SVG/1.1/DTD/svg11.dtd">
<svg width="100%" height="100%" viewBox="0 0 29 30" version="1.1" xmlns="http://www.w3.org/2000/svg" xmlns:xlink="http://www.w3.org/1999/xlink" xml:space="preserve" xmlns:serif="http://www.serif.com/" style="fill-rule:evenodd;clip-rule:evenodd;stroke-linejoin:round;stroke-miterlimit:2;">
    <g transform="matrix(1,0,0,1,-207.656,-46.1363)">
        <g transform="matrix(0.126982,0,0,0.126982,103.2,35.7624)">
            <path d="M846.042,161.201L846.042,161.108C846.042,117.32 881.667,81.696 925.455,81.696L941.451,81.696C985.233,81.696 1020.86,117.32 1020.86,161.108L1020.86,161.305C1025.58,161.928 1029.97,164.343 1033.61,168.155C1039.41,174.234 1043.3,183.993 1043.3,194.987L1043.3,225.733C1043.3,236.728 1039.41,246.485 1033.61,252.563C1029.35,257.024 1024.06,259.571 1018.41,259.571L1016.07,259.571L1016.07,266.167C1016.07,286.365 999.63,302.793 979.437,302.793L972.659,302.79C970.085,308.21 964.553,311.976 958.183,311.976L935.872,311.976C927.065,311.976 919.851,304.763 919.851,295.95L919.851,290.891C919.851,282.085 927.064,274.87 935.872,274.87L958.183,274.87C964.522,274.87 970.033,278.6 972.623,283.97L979.437,283.97C989.255,283.97 997.242,275.984 997.242,266.167L997.242,259.571L991.066,259.571C985.909,259.571 980.951,254.18 980.951,246.822L980.951,173.899C980.951,167.718 984.452,162.92 988.628,161.544L988.628,161.108C988.628,135.089 967.464,113.925 941.451,113.925L925.455,113.925C899.437,113.925 878.272,135.089 878.272,161.108L878.272,161.941C881.994,163.701 884.953,168.215 884.953,173.899L884.953,246.822C884.953,254.18 880,259.571 874.844,259.571L847.49,259.571C841.836,259.571 836.549,257.024 832.293,252.562C826.496,246.485 822.608,236.728 822.608,225.733L822.608,194.987C822.608,183.993 826.495,174.234 832.292,168.155C836.182,164.077 840.937,161.598 846.042,161.201ZM874.844,169.02L874.334,169.02C872.159,169.02 870.396,167.257 870.396,165.082L870.396,161.108C870.396,130.747 895.095,106.049 925.455,106.049L941.451,106.049C971.806,106.049 996.504,130.747 996.504,161.108L996.504,165.082C996.504,167.257 994.741,169.02 992.566,169.02L991.066,169.02C990.576,169.02 990.245,169.467 989.924,169.925C989.214,170.939 988.827,172.354 988.827,173.899L988.827,246.822C988.827,248.366 989.213,249.779 989.923,250.791C990.244,251.25 990.576,251.695 991.066,251.695L1001.18,251.695C1003.36,251.695 1005.12,253.458 1005.12,255.633L1005.12,266.167C1005.12,280.326 993.597,291.846 979.437,291.846L969.89,291.846C968.091,291.846 966.521,290.627 966.075,288.884C965.176,285.368 961.971,282.746 958.183,282.746L935.872,282.746C931.394,282.746 927.727,286.413 927.727,290.891L927.727,295.95C927.727,300.431 931.393,304.1 935.872,304.1L958.183,304.1C961.99,304.1 965.204,301.452 966.085,297.906C966.521,296.15 968.097,294.917 969.906,294.917L979.437,294.917C995.288,294.917 1008.19,282.023 1008.19,266.167L1008.19,255.633C1008.19,253.458 1009.96,251.695 1012.13,251.695L1018.41,251.695C1021.97,251.695 1025.23,249.937 1027.91,247.126C1032.52,242.296 1035.42,234.472 1035.42,225.733L1035.42,194.987C1035.42,186.248 1032.52,178.423 1027.91,173.591C1025.23,170.779 1021.97,169.02 1018.41,169.02L1016.92,169.02C1014.75,169.02 1012.98,167.257 1012.98,165.082L1012.98,161.108C1012.98,121.662 980.891,89.572 941.451,89.572L925.455,89.572C886.009,89.572 853.918,121.662 853.918,161.108L853.918,165.082C853.918,167.257 852.155,169.02 849.98,169.02L847.49,169.02C843.929,169.02 840.672,170.779 837.991,173.59C833.383,178.422 830.484,186.248 830.484,194.987L830.484,225.733C830.484,234.472 833.383,242.296 837.991,247.126C840.672,249.937 843.929,251.695 847.49,251.695L874.844,251.695C875.332,251.695 875.663,251.25 875.982,250.793C876.692,249.781 877.077,248.367 877.077,246.822L877.077,173.899C877.077,172.353 876.691,170.938 875.981,169.923C875.662,169.466 875.332,169.02 874.844,169.02Z"/>
        </g>
    </g>
</svg>
