<?xml version="1.0" encoding="UTF-8" standalone="no"?>
<!DOCTYPE svg PUBLIC "-//W3C//DTD SVG 1.1//EN" "http://www.w3.org/Graphics/SVG/1.1/DTD/svg11.dtd">
<svg width="100%" height="100%" viewBox="0 0 17 15" version="1.1" xmlns="http://www.w3.org/2000/svg" xmlns:xlink="http://www.w3.org/1999/xlink" xml:space="preserve" xmlns:serif="http://www.serif.com/" style="fill-rule:evenodd;clip-rule:evenodd;stroke-linejoin:round;stroke-miterlimit:2;">
    <g transform="matrix(1,0,0,1,0.000237006,0.00035505)">
        <g transform="matrix(1,0,0,1,-42.8965,-109.102)">
            <g transform="matrix(0.40186,0,0,0.40186,29.9634,65.5571)">
                <g transform="matrix(1.25561,0,0,1,-18.2453,-0.20862)">
                    <path d="M41.153,118.27C40.606,118.27 40.162,117.713 40.162,117.026C40.162,116.339 40.606,115.782 41.153,115.782L71.38,115.782C71.927,115.782 72.371,116.339 72.371,117.026C72.371,117.713 71.927,118.27 71.38,118.27L41.153,118.27Z" style="fill:white;"/>
                </g>
                <g transform="matrix(1,0,0,1,-5,0)">
                    <path d="M68.692,110.482C68.207,109.996 68.207,109.208 68.692,108.722C69.178,108.236 69.966,108.236 70.452,108.722L77.72,115.99C78.206,116.476 78.206,117.263 77.72,117.749L70.556,124.913C70.071,125.398 69.282,125.398 68.797,124.913C68.311,124.427 68.311,123.639 68.797,123.153L75.08,116.869L68.692,110.482Z" style="fill:white;"/>
                </g>
            </g>
            <g transform="matrix(-0.40186,4.92137e-17,-4.92137e-17,-0.40186,72.365,167.294)">
                <g transform="matrix(1.21946,3.79605e-17,4.17384e-17,1,-15.665,-0.20862)">
                    <path d="M41.153,118.27C40.59,118.27 40.133,117.713 40.133,117.026C40.133,116.339 40.59,115.782 41.153,115.782L71.38,115.782C71.943,115.782 72.4,116.339 72.4,117.026C72.4,117.713 71.943,118.27 71.38,118.27L41.153,118.27Z" style="fill:white;"/>
                </g>
                <g transform="matrix(1,0,0,1,-5,0)">
                    <path d="M68.692,110.482C68.207,109.996 68.207,109.208 68.692,108.722C69.178,108.236 69.966,108.236 70.452,108.722L77.72,115.99C78.206,116.476 78.206,117.263 77.72,117.749L70.556,124.913C70.071,125.398 69.282,125.398 68.797,124.913C68.311,124.427 68.311,123.639 68.797,123.153L75.08,116.869L68.692,110.482Z" style="fill:white;"/>
                </g>
            </g>
        </g>
    </g>
</svg>
